<?xml version="1.0" encoding="utf-8"?>
<!-- Generator: Adobe Illustrator 19.0.0, SVG Export Plug-In . SVG Version: 6.00 Build 0)  -->
<svg version="1.1" id="Layer_1" xmlns="http://www.w3.org/2000/svg" xmlns:xlink="http://www.w3.org/1999/xlink" x="0px" y="0px"
	 viewBox="0 0 960 560" style="enable-background:new 0 0 960 560;" xml:space="preserve">
<style type="text/css">
	.st0{fill:#FFFFFF;}
</style>
<g>
	<path d="M731,335.4c0,13.8-0.1,27.6,0,41.3c0.1,11.6,0.7,23.2,0.9,34.9c0,4.1,0,8.5-1.3,12.3c-0.8,2.2-4.1,4.7-6.5,4.9
		c-13.9,1.1-27.8,2.3-41.7,2c-14.7-0.3-29.3-2.4-43.9-3.6c-0.7-0.1-1.3-0.1-2-0.1c-14.3-0.3-28.6-0.7-42.8-1
		c-4.4-0.1-8.9-0.4-13.2,0.2c-2,0.3-4.6,2.3-5.3,4.1c-5,13.7-9.5,27.5-14.2,41.3c-4.7,13.8-8.4,28-14.5,41.1
		c-8.3,18.1-23.3,27.3-43.7,27.4c-15.4,0-30.4-1.8-44.4-8.7c-17.3-8.5-26.8-22.8-30.3-41.2c-1.7-9.2-0.9-19-3.4-28
		c-4.1-14.1-11.4-26.8-24.1-35.3c-1.1-0.7-2.3-1.6-3.5-1.6c-13,0.1-25.9,0.3-38.9,0.7c-16.6,0.5-33.1,1.1-49.7,2
		c-12,0.7-24,2.6-36.1,2.7c-11.4,0.2-22.8-1.1-34.2-1.9c-5.6-0.4-7.1-2.4-7.2-8c-0.3-10.1-1.1-20.2-0.9-30.4
		c0.4-19.4,1.2-38.8,1.9-58.2c0.5-13.1,1-26.2,2.1-39.2c0.8-9.2,2.5-18.3,3.9-27.4c1.6-10.4,2.6-21,5.2-31.2
		c4-15.7,8.9-31.1,13.7-46.6c1.3-4.2,3.3-8.3,5.2-12.3c7.4-15.4,14.3-31.1,22.6-46c9.6-17.1,18.3-35,33.6-48.3
		c14.8-12.8,29.3-26,47-34.6c18-8.7,36.8-14.6,56.8-16.9c10.6-1.2,21.1-3.9,31.6-5.8c16.7-3.1,33.4-4.2,50.3-1
		c18.5,3.5,37.1,6,55.5,10.2c22.5,5.1,43.3,14.5,61.6,28.8c21.4,16.8,39.7,35.9,52.5,60.7c13,25.2,26.8,50.1,35.6,77
		c6.4,19.6,11.7,39.8,14.3,60.7c2.3,18.7,4.5,37.4,5.6,56.2c0.4,6.3,0.9,12.6,1.4,18.8C730.6,335.4,730.8,335.4,731,335.4z
		 M727,336.6c-0.2,0-0.5,0-0.7,0c-0.8-13.9-1.4-27.7-2.3-41.6c-0.3-4.6-1.1-9.1-1.8-13.6c-1-7.6-1.9-15.3-3.3-22.8
		c-1.7-9.4-3.7-18.8-5.8-28.2c-1.1-4.9-2.6-9.7-4.1-14.5c-3.7-11.9-6.5-24.3-11.6-35.6c-8.7-19.1-19.4-37.3-28.2-56.4
		c-11.3-24.6-30.1-42.5-50.7-58.7c-15-11.8-32-19.9-50.4-25.3c-4.7-1.4-9.3-3-14.1-3.9c-16.4-3-32.8-5.6-49.1-8.7
		c-15.6-3-31-2.7-46.5,0c-13.8,2.5-27.5,5.6-41.4,7.5c-17.5,2.3-33.9,8.1-49.6,15.7C349.6,59,335,72.1,320.4,85.1
		c-14.7,13-22.9,30.6-32.3,47.2c-7.1,12.6-12.9,26-19.2,39.1c-2.7,5.7-5.9,11.3-7.8,17.3c-5,15.6-9.9,31.3-13.9,47.2
		c-2.6,10.1-3.6,20.6-5.2,30.9c-1.4,9.2-3.1,18.4-3.9,27.7c-1.1,13-1.5,26.1-2.1,39.1c-0.8,18.5-1.6,37.1-1.9,55.6
		c-0.2,10.6,0.7,21.2,0.8,31.8c0.1,3.2,1.8,3.9,4.3,4c11,0.7,22.1,2.2,33.1,1.8c17.1-0.6,34.1-2.6,51.2-3.7
		c10.9-0.7,21.9-0.9,32.8-1.1c11.7-0.2,23.4,0.9,35-0.4c7.3-0.8,12.3,1.5,17.2,5.6c2.1,1.8,3.8,4.1,5.5,6.3
		c6.7,8.5,12.9,17.5,14.9,28.3c1.7,8.8,1.6,18,3.2,26.8c3.1,17.4,11.7,31.1,28.1,39c15.2,7.4,31.5,9.5,48,8.2
		c13.5-1.1,24.3-7.9,31.8-19.7c8.3-13,11.8-27.8,16-42.3c4.1-13.9,8.5-27.6,13.2-41.3c2.6-7.4,6.6-13.4,16.2-9.9
		c1.3,0.5,3.2-0.6,4.8-0.6c16.1,0.3,32.2,0.6,48.3,1c0.7,0,1.3,0.1,2,0.1c17,1.3,33.9,2.8,51,3.7c7.4,0.4,14.9-0.5,22.3-0.9
		c3.1-0.2,6.3-0.4,9.3-1.1c1.4-0.3,3.5-1.7,3.7-2.9c0.8-4,1.2-8.2,1.1-12.3c-0.1-10.6-0.8-21.2-0.9-31.8
		C726.9,364.1,727,350.4,727,336.6z"/>
	<path class="st0" d="M727,336.6c0,13.8-0.1,27.5,0,41.3c0.1,10.6,0.8,21.2,0.9,31.8c0.1,4.1-0.3,8.2-1.1,12.3
		c-0.2,1.2-2.3,2.5-3.7,2.9c-3,0.7-6.2,0.9-9.3,1.1c-7.4,0.4-14.9,1.3-22.3,0.9c-17-0.9-34-2.4-51-3.7c-0.7,0-1.3-0.1-2-0.1
		c-16.1-0.3-32.2-0.7-48.3-1c-1.6,0-3.4,1.1-4.8,0.6c-9.7-3.6-13.7,2.4-16.2,9.9c-4.7,13.7-9.1,27.4-13.2,41.3
		c-4.3,14.5-7.7,29.3-16,42.3c-7.5,11.8-18.4,18.5-31.8,19.7c-16.5,1.4-32.8-0.8-48-8.2c-16.4-7.9-25-21.6-28.1-39
		c-1.6-8.8-1.5-18-3.2-26.8c-2.1-10.8-8.2-19.8-14.9-28.3c-1.7-2.2-3.4-4.5-5.5-6.3c-4.9-4.1-9.9-6.4-17.2-5.6
		c-11.5,1.3-23.3,0.2-35,0.4c-10.9,0.2-21.9,0.4-32.8,1.1c-17.1,1.1-34.1,3.1-51.2,3.7c-11,0.4-22.1-1.1-33.1-1.8
		c-2.5-0.2-4.3-0.8-4.3-4c-0.2-10.6-1-21.2-0.8-31.8c0.3-18.5,1.2-37.1,1.9-55.6c0.5-13,1-26.1,2.1-39.1c0.8-9.3,2.5-18.5,3.9-27.7
		c1.6-10.3,2.6-20.8,5.2-30.9c4-15.9,8.9-31.6,13.9-47.2c1.9-6,5.1-11.6,7.8-17.3c6.3-13.1,12.1-26.5,19.2-39.1
		c9.4-16.6,17.6-34.2,32.3-47.2C335,72.1,349.6,59,367.3,50.5c15.7-7.6,32.1-13.3,49.6-15.7c13.9-1.9,27.6-5,41.4-7.5
		c15.5-2.8,31-3,46.5,0c16.3,3.2,32.8,5.7,49.1,8.7c4.8,0.9,9.4,2.5,14.1,3.9c18.3,5.4,35.4,13.5,50.4,25.3
		c20.7,16.2,39.4,34.1,50.7,58.7c8.8,19.1,19.5,37.2,28.2,56.4c5.1,11.3,7.9,23.7,11.6,35.6c1.5,4.8,3,9.6,4.1,14.5
		c2.1,9.4,4.1,18.7,5.8,28.2c1.4,7.6,2.2,15.2,3.3,22.8c0.6,4.5,1.5,9.1,1.8,13.6c0.9,13.9,1.6,27.7,2.3,41.6
		C726.5,336.6,726.8,336.6,727,336.6z M373.4,172.3c-1.7,0.2-3.4,0.5-5.4,0.8c0-3.6-0.2-6.6,0-9.5c0.9-13.6,2.1-27.3,2.9-40.9
		c0.4-7.2-1-8.1-8.7-7.2c-0.1,0.9-0.2,1.9-0.2,2.9c-0.3,11.3-0.6,22.5-1,33.8c-0.2,4.8-0.9,9.5-0.9,14.3c0,5.7,2,7.4,5.9,7.3
		c0,16.3,0,32.6,0,49.1c9.3,2.9,10,2.1,11.3-13.3c2.5-1,5-2.1,7.7-3.1c0.5-6.6,0.9-13.2,1.3-19.5c-3.8-2.2-9.1-2.3-8.2-8
		c0.6-4-1-6-4.8-6.8c3.7-0.1,7.3,0.3,7.2-5.5c-0.1-1.8,2.6-4.2,4.6-5.5c2.2-1.4,5.1-1.9,7.7-2.8c0.7-4.8,1.7-9.6,2.1-14.5
		c0.6-6.2,1-12.5,0.9-18.8c0-1.4-2.5-2.7-3.9-4.1c-1,1.4-2.6,2.7-2.8,4.2c-0.9,6.8-1.2,13.7-2.2,20.6c-1,6.4-3.8,11.6-11.2,12.2
		c-4.7,0.4-4.7,4.3-5.6,7.4C369.2,168.5,370.2,171,373.4,172.3z M539.8,426.5c3.2-2.8,6-5.1,8.7-7.5c3.3-3,6.7-5.9,9.8-9.1
		c6.2-6.2,12.3-12.5,18.1-19.1c1.4-1.6,2.3-4.9,1.7-6.9c-1.2-4.7-3.9-8.9-5.3-13.5c-3.8-13-4.6-25.9,0.8-38.9c4.1-9.8,9-19.2,6.6-31
		c-2.4-12.2-6.7-23-14.5-32.5c-15-18.4-34.4-30.7-55.7-40.3c-3.6-1.6-7.7-3.4-11.5-3.4c-5.6,0.1-11.2,1.9-16.9,2.6
		c-11.7,1.5-23.5,2.2-35.1,4.2c-14.6,2.4-27.7,7.8-38.4,18.9c-8.2,8.6-15.2,18-21.1,28.1c-5.5,9.7-10.5,20-9,31.6
		c0.9,6.9,3,13.7,5.4,20.2c4.1,10.9,6.4,21.7,4.4,33.5c-1.8,10.2-2.5,20.6-2.7,30.9c-0.1,4-0.8,9.7,5.3,11.5c2.5,0.7,5,1.5,7.5,2.2
		c13.4,3.5,27.1,5.8,37.8,15.1c2.3-1.7,4.3-3.1,7.2-5.2c-1.9,8.2,2.4,15.9,7.8,16.1c9.4,0.4,18.9,0.5,28.3,1.1
		c6.5,0.4,13,1.9,19.5,2.2c11.8,0.5,23.6,0.7,35.4,0.5c3.4-0.1,6.8-2.1,10.7-3.4C542.5,430.8,540.9,428.2,539.8,426.5z M652.9,188.5
		c0.1-0.8,0.1-1.4,0.1-2.1c0.2-10.9,0.2-10.9-9.9-14.5c-6.9-2.5-9-5.5-9.1-12.8c-0.1-4.1-0.3-8.3-0.6-12.4
		c-0.8-10.3-1.6-20.6-2.4-30.9c1.3,1.9,1.3,4,2.2,5.8c0.6,1.3,2.3,3.1,3.5,3.1c6.3,0,12.5-0.5,18.8-0.8c4.4-0.2,6.1-2.8,3.4-6.3
		c-2.8-3.6-6.1-7.2-10-9.6c-8-4.9-15.9-2.4-17.4,4.8c-0.4-5.4-1.4-7.6-16.8-0.8c0.5,8.5,0.6,17.3,1.6,26c1.3,11.7,3.4,23.3,4.8,35
		c0.9,7.7,4,12.3,11.4,14.8c2.2,0.8,4.5,1.5,6.8,2.2c-2.9,0.8-5.6,0.9-8.2,0.8c-6.7-0.3-11.9-4.6-12.8-10.8
		c-0.8-5.2-1.6-10.4-2-15.6c-1.1-15.6-2.2-31.3-3-46.9c-0.2-3.3-0.8-5.1-4.5-4.7c-3.5,0.3-6.8,0.4-6.6,5.3c0.1,2.5,0,5,0,7.5
		c0.3,10,0.6,19.9,1,29.9c0.2,3.7,0.6,7.4,1,11.1c-0.5,0.1-1,0.1-1.4,0.2c-0.2-0.5-0.4-1.1-0.5-1.6c-0.7-7.5-1.6-15-2-22.6
		c-0.3-5.8,0-11.7,0-17.5c0-2.7,0-5.4,0-9.9c-4,2-8.6,3-8.7,4.4c-0.6,7.1-0.2,14.2,0.2,21.4c0.4,6.4,1.2,12.7,1.9,19.8
		c-6.3-3.9-14.2-3.8-15.6-13.1c3.7,4.7,7.9,3.7,10.3,1c1.8-2,2.7-7.5,1.3-8.8c-2-2.1-6.3-1.9-9.8-2.7c-0.8,3.6-1.5,6.2-2.3,9.9
		c-1-9.4-1.9-17.7-2.8-26c-6.7-0.2-8.3,1.8-6.8,8.2c0.2,1,0.2,2,0.3,2.9c0.7,7.9,1.3,15.7,2.1,23.6c0.1,1,0.9,2.7,1.5,2.8
		c8.2,0.9,12,6.2,13.8,13.5c0,0.2,0.1,0.3,0.1,0.5c-0.4-0.1-0.9-0.2-1.3-0.3c-0.4,2-1.1,4-1.1,6c0,3,0.1,5.5-3.9,6.1
		c-1.5,0.2-3.8,2.1-3.8,3.3c-0.1,5.7,0,11.6,1.1,17.2c0.4,1.7,4.4,2.7,6.8,4c0.3,0.1,0.5,0.4,0.6,0.6c0.4,3.5,0.4,7,1.4,10.3
		c0.5,1.6,2.5,3.5,4.1,3.8c2,0.4,4.4-0.6,7-1.1c0-2.7,0-5.1,0-7.3c3.2-1.3,7.7,3.4,8.8-2.6c1.2-6.9-0.1-9.7-4.1-10.3
		c-5.1-0.7-4.7,3.5-5.6,6.5c0-11.3,0-22.5,0-34.2c5.9,2.3,5.2-4,8-5.9c0.3,0.6,0.6,0.9,0.6,1.2c1.1,5.9,1.9,11.9,3.2,17.8
		c1,4.5,4.1,7.6,8.7,8.1c9.3,0.9,18.7,1.6,28.1,2c2.8,0.1,5.6-1.3,9.4-2.2c-2.8-2.3-4.4-3.6-6.2-5.1
		C649.3,189.7,651,189.1,652.9,188.5z M399.6,236c10.9-4.3,20.9-9.4,31.4-12.2c13.3-3.6,27.1-5.5,40.8-7.7c8.4-1.4,16.9-2.1,25.4-3
		c3.8-0.4,8.3-1.4,11.4,0c13.1,6.1,26,12.8,38.8,19.7c5.3,2.9,10.1,6.8,15.6,10.6c0-3.6,0.2-6.2,0-8.9c-0.9-13.3-2-26.6-2.9-39.9
		c-0.5-7.3-0.5-14.7-1.1-22c-1.2-16.7-3.2-33.4-3.8-50.2c-0.4-13-4.2-23.6-14.7-31.5c-4.2-3.2-7.9-7.6-12.6-9.7
		c-8.7-3.9-17.8-6.9-26.9-9.7c-6.8-2.1-14.2-5-20.9-4.2c-11.7,1.5-23,5.6-34.5,8.7c-10.9,2.9-19.2,10.1-27.4,17.2
		c-4.3,3.8-8.2,8.1-9.1,14c-1.9,12.6-4,25.3-4.9,38c-1.2,16.3-1.5,32.7-2.1,49.1c-0.1,1.3,0,2.7,0,4
		C401.2,211.1,400.3,223.8,399.6,236z M309.3,195.3c0.3,0.5,0.7,1.1,1,1.6c3.4,0.4,6.8,1.1,10.2,1c6.8-0.1,13.5-0.5,20.3-1
		c8.1-0.6,11.9-3.6,13.5-11.7c1.3-6.8,3.6-13.4,2.9-20.6c-0.4-3.8,1.6-7.7,1.7-11.5c0.2-12,0-24.1,0.1-36.1c0-4-2.6-4-5.3-4
		c-2.8,0-5.9-0.3-5.7,4.1c0.1,4.3,0.3,8.7,0,13c-1.2,15.1-2.5,30.1-4,45.2c-0.7,6.5-2.4,13.1-9.8,14.9c-4.5,1.1-9.4,0.8-14.2,1.1
		c1.2-1.5,2.7-1.9,4.1-2.3c8.7-2.5,12.9-3.8,14-12.9c1.2-10,3.4-19.9,4.8-29.9c1.3-10.1,2-20.2,3.1-30.3c0.5-4.1-2.1-5.5-5-6.1
		c-3.5-0.7-7.1-0.5-10.7-0.4c-0.5,0-1.2,1.5-1.3,2.4c-0.5,2.9-0.9,5.8-1,8.8c-0.7,12.7-1.9,25.4-1.8,38.1
		c0.1,7.8-3.6,11.8-10.1,13.7c-4.8,1.4-8.8,2.7-9.2,8.5c0,0.1-0.5,0.3-1,0.5c0-1.6-0.2-3.1,0-4.6c0.5-3.4-1.4-5.3-4.2-5.4
		c-3.3-0.1-8.3-2.5-9.3,3c-0.9,5.3-1.2,11-0.5,16.4c0.8,6.2,2.4,6.8,8.5,6.5c5.7-0.3,6-4.6,6.7-8.5c2.4,0.7,4.7,1.3,6.7,1.9
		C312.6,191.9,310.9,193.6,309.3,195.3z M376.2,354.6c-0.4,0-0.8-0.1-1.2-0.1c0-6.3,0.1-12.7,0-19c-0.2-6.3-0.6-12.5-1-18.8
		c-0.8-12.8-6.9-21-18.3-22.5c-14.3-1.9-28.7-2.9-43.1-4.1c-6.6-0.6-13.2-0.5-19.8-1.2c-11.8-1.3-23.6-1.9-35.1,1.9
		c-5.7,1.9-9.8,5.1-10.7,11.4c-0.6,4.4-1.5,8.7-2,13c-1.4,11.7-3.2,23.4-3.8,35.2c-0.8,16.2-0.2,32.3,2.7,48.3
		c2.3,12.5,2.2,15.7,15.1,18c13.7,2.4,27.9,3.6,41.8,3c18.6-0.8,37.2-3.5,55.7-6.1c7.7-1.1,14.9-3.6,15.6-13.8
		C373.1,384.7,374.8,369.6,376.2,354.6z M584,353.3c-0.4,0-0.9,0.1-1.3,0.1c1.4,15.9,2.8,31.8,4.4,47.7c0.5,5,3.1,9.2,8.3,10.4
		c7.3,1.8,14.6,3.5,22,4.4c13.2,1.6,26.4,3.1,39.7,3.8c9.4,0.5,18.9-0.2,28.3-0.9c6.1-0.5,12.3-1.6,18.3-3
		c5.2-1.3,9.4-4.9,10.2-10.2c1.9-12.6,3.6-25.4,4-38.1c0.3-12.5-1.1-25.1-1.8-37.6c-0.6-11.1-2-22.1-6.1-32.6
		c-0.6-1.6-2.1-3.4-3.6-4.2c-3.7-1.7-7.5-3.8-11.4-4c-9.1-0.6-18.4-0.5-27.5-0.1c-17.8,0.8-35.6,1.6-53.4,3.1
		c-6.2,0.5-12.3,2.7-18.3,4.7c-4.9,1.6-8.5,5.5-9.5,10.5c-1.3,6.7-1.8,13.7-2.1,20.5C583.7,336.3,584,344.8,584,353.3z M603.9,258.9
		c0,0.2,0,0.4,0,0.6c-6.1,0.5-12.2,0.9-18.2,1.4c-7.3,0.6-8.9,2-10.5,8.6c-1.4,6.1,1,14.5,5.3,16c3.6,1.3,7.6,2.2,11.4,2.2
		c6.4,0.1,12.9-0.6,19.3-0.8c11.1-0.4,22.2-0.7,33.3-1c3.1-0.1,6.1,0.1,9.2-0.1c7.4-0.5,14.7-1.3,22-1.9c7-0.5,14-0.4,21-1.2
		c4.2-0.5,8.3-2.5,9.9-7.1c2.2-6.3-3.2-20.7-13.5-19.8c-14.6,1.2-29.2,2.4-43.9,2.9C634.1,259.3,619,258.9,603.9,258.9z
		 M362.8,285.9c0,0.3,0,0.7,0,1c2.7,0,5.3,0,8,0c10.3,0,14.3-4,14.3-14.2c0-10.6-2-13.4-10.7-13.8c-17.8-0.8-35.7-1.4-53.5-2
		c-9.8-0.4-19.5-0.6-29.3-1c-6.6-0.3-13.2-0.4-19.7-1.2c-8.6-1.1-13.6,0.7-16.8,8.7c-3.7,9.3-2.2,16.8,8.3,18.4
		c10.8,1.6,21.7,2.3,32.7,3c10.1,0.7,20.3,0.9,30.5,1.1C338.6,286.1,350.7,285.9,362.8,285.9z M673.5,169.7c1.5-4.7,0.2-8.1-4.2-9.8
		c-6.2-2.3-12.6-4.3-17.7-5.9c2.6-0.2,7.1,0.2,9.5-4.9c2-4.2-0.7-6-2.9-8.4c5.3-4,5.1-9.9-0.8-12.7c-3.4-1.6-7.4-2.8-11.2-2.9
		c-9.4-0.2-12.3,2.4-11.2,9.6c0.4,2.5,2.6,4.8,4.1,7.4c-3.1,3.6-4.5,7-2.7,9.6c1.4,2,4.1,3,5.8,4.2c0.2-0.1-0.5,0.3-1.3,0.6
		c-6.2,2.4-6.5,3.2-3.1,9.1c0.5,0.9,1.3,2,2.2,2.4c4.7,2,9.4,3.7,13.9,5.5c0,5.3,0.2,11.4-0.1,17.5c-0.2,3.7,1.3,5.9,4.8,6
		c3.6,0.1,8,1.3,9.3-3.9c2-7.7,1.5-15.2-1.8-22.3c-2.3,0.1-4.3,0.2-6.3,0.3c0-0.4,0-0.8,0-1.3C664.4,169.7,668.8,169.7,673.5,169.7z
		 M670.6,180.1c0.7,3.5,1.2,6.7,2,9.8c1.7,6.7-1.4,10.9-8,11c-9.3,0.2-18.5,0.5-27.8,1c-6.4,0.4-12.8,1-19,2.1
		c-2.4,0.4-6.1,2.4-6.4,4.2c-2.1,11.9-2.3,23.9,1.7,35.5c0.4,1.2,1.5,2.7,2.6,2.9c3.5,0.7,7.2,1.3,10.7,1.1
		c17.3-0.8,34.6-1.6,51.8-3.1c6.6-0.6,9.6-1.5,8.9-10c-1.3-14.2-2.4-28.5-4.2-42.6C681.7,183.4,677.8,179.9,670.6,180.1z
		 M287.3,181.8c-4.8-2.7-7.6-0.3-9.1,3.1c-1.7,3.8-2.2,8-3.2,12.1c-3.5,13.5-4.2,27.2-4,41.1c0.1,4,1.6,6.4,5.4,6.9
		c3.7,0.5,7.6,0.3,11.2,1c16.7,3.1,33.5,3.2,50.4,2.9c3.6-0.1,6-1.4,7.2-5.3c3.3-10.3,3-20.8,2.6-31.3c-0.1-2-1.5-4.8-3.2-5.8
		c-2.6-1.5-5.8-2.3-8.8-2.5c-13.8-0.9-27.7-1.5-41.6-2c-7.2-0.3-10.7-4.6-8.8-11.9C286.1,187.3,286.7,184.5,287.3,181.8z
		 M634.9,97.5c-2.2-2.3-3.4-3.8-4.9-5c-8.4-6.5-16.9-12.9-25.4-19.3c-13.2-10-28-16.7-43.7-21.6c-1.8-0.6-5.3,0.3-6.3,1.7
		c-3.1,4.2-5.8,8.7-7.7,13.5c-1.5,3.7-3.2,7.7,0.2,11.9c8.6,10.5,16.8,21.3,25.2,32c2.1,2.7,4.2,4.1,8,2.5c4.7-2.1,9.7-3.8,14.7-5.1
		c11.5-2.9,23.1-5.4,34.6-8.1C631.2,99.5,632.7,98.5,634.9,97.5z M386.4,114.4c1.3-1.2,3.1-2.3,4.3-3.9
		c8.2-10.4,16.3-20.9,24.5-31.2c1.9-2.4,3.7-4.5,2-7.9c-3-5.7-5.8-11.5-8.5-17.3c-1.5-3.3-3.7-3.5-6.8-2.6
		c-11.9,3.5-23.2,8.3-33.5,15.4c-12,8.4-24.1,16.9-36,25.5c-1.5,1.1-2.2,3.3-3.3,5c2.1,1.2,4,2.9,6.2,3.5
		c15.4,4.1,31.4,5.5,46.1,12.1C382.7,113.5,384.2,113.7,386.4,114.4z M524.8,483.5c-4.7,2.3-8.6,5.7-12.7,6.1
		c-9.1,0.8-18.3,0.2-27.5,0.1c-9.5-0.2-19-1.3-28.3-0.5c-9.9,0.9-13.4,9.8-8.4,18.2c1.2,1.9,1.8,4.4,3.4,5.9
		c1.9,1.9,4.4,4.2,6.8,4.4c15.4,1.4,30.9,2.2,46.3,3.2c2.6,0.2,5.2,0.8,7.8,0.9c4.3,0,10,1.4,12.7-0.8c7.5-6.3,13.5-14.2,15.2-24.4
		c0.8-4.6-0.4-7.9-5.3-9.4C531.1,486.1,527.7,484.6,524.8,483.5z M367.2,256.9c0,0.1,0,0.2,0,0.4c5.9-0.5,11.8-1,17.7-1.4
		c3.8-0.3,5.8-2.2,6.1-6c0.4-6.6,0.6-13.1,1-19.7c0.2-3.3-1.1-4.4-4.4-4.3c-9.5,0.1-19,0-28.5,0.1c-5.5,0-7.8,2.4-8.1,8
		c-0.3,5.3-0.6,10.6-1,15.9c-0.3,4.3,1.8,6.8,6.2,7.1C359.9,257.1,363.5,256.9,367.2,256.9z M569.5,255.7c12.3,0.4,24,0.9,35.6,0.9
		c1.6,0,4.4-2.7,4.6-4.4c0.6-4.9,1-10.1,0.1-14.9c-2-10.3-1-11.6-12.3-11.4c-7.7,0.2-15.4,0.3-23.1-0.1c-5-0.2-6.6,2.2-6.4,6.5
		C568.4,239.7,569,247,569.5,255.7z M287.3,166.4c5.8,1.1,10.7,2.6,15.8,2.9c5,0.3,10.2,0.1,14.9-1.2c4-1.1,7.8-4.6,6.7-9.1
		c-0.6-2.6-4.7-4.3-6.4-5.7c1.1-1.1,4.4-3,4.3-4.8c-0.1-3.3-2.2-6.5-3.4-9.6c5.5-0.5,3.1-6.6,4.5-10.2c0.3-0.7-2.8-3.8-4.5-3.9
		c-5.3-0.6-11-1.3-16.1-0.1c-6.7,1.6-8.2,10-4.7,13c-0.2,4-1.3,7.3-0.3,9.6c1.2,2.7,4.3,4.5,6.2,6.3
		C292,155.6,286.4,160.1,287.3,166.4z M526.7,71.1c0.1-0.4,0.1-0.9,0.2-1.3c4.1,1.2,6.5-0.8,7.9-4.2c1.1-2.8,2-5.8,2.7-8.7
		c1.8-7-1.1-13-8-14.5c-10.2-2.2-20.6-3.2-30.8-5.5c-5.4-1.2-6.9,1.6-8.4,5.4c-0.4,1-0.8,2.1-1.1,3.2c-2.6,9.4-1.8,13.6,4.9,16
		C504.8,65.2,515.9,67.9,526.7,71.1z M459.8,36.1c-9.9,2.1-19.9,3.8-29.6,6.4c-2.7,0.7-6.2,3.7-6.8,6.2c-1.6,6.5-0.3,13.2,3.1,19
		c0.9,1.5,3.7,3,5.2,2.7c10.6-2.3,21.2-4.9,31.7-7.8c2.6-0.7,6-2.1,7-4.1c3.1-6.3,1.3-12.7-1.5-18.9C466.9,35,463,37.8,459.8,36.1z
		 M312.9,122c2.8,0,5.7-0.2,8.5,0c2.9,0.2,4.6-1.1,4.5-3.8c-0.3-4.7,0.6-11.7-2.1-13.7c-5.7-4.3-21.4,3.3-24.3,10.3
		c-1.7,4,0.1,6.9,4.4,7C306.9,122,309.9,122,312.9,122z M531.2,447.7c-2-0.9-3.5-1.5-5-2.1c-1.5-0.6-3-1.1-4.5-1.7
		c-1.8-0.7-3.6-1.6-5.4-2.2c-3.4-1.2-6.1,1.2-6.2,6.4c-0.2,8.9,0.9,11.5,9.2,11.9c2.6,0.1,5.2,0,8.3,0
		C528.7,456.2,529.9,452.1,531.2,447.7z M459.8,463.2c-4.8,0.9-9,1.7-13.1,2.5c-2.9,0.6-4.2,1.8-2.8,5.1c1.5,3.6,2.4,7.3,3.6,11.4
		c4.2-0.5,8.2-1,12.3-1.5C459.8,475,459.8,469.8,459.8,463.2z M487.7,486.2c0.5-5,1.1-9.2,1.2-13.4c0.1-3.7-5.6-7.5-9.1-6.2
		c-4,1.4-6.9,6-6.9,10.4c0.1,4.7,2.2,7.7,6.9,8.4C482.3,485.7,484.8,485.9,487.7,486.2z M533.2,461.6c1.7,0.7,3.9,1.3,5.8,2.4
		c4.2,2.3,6.9,0.5,7.5-3.4c0.9-5.4,0.7-10.9,1-16C534.4,443.6,534.4,452.7,533.2,461.6z M546.8,467.3c-0.4-0.4-0.9-0.9-1.3-1.3
		c-1.1,0-2.3,0.1-3.4,0c-11.4-0.6-11.2-0.6-11.2,11.4c0,3.6,1.5,5,4.9,5.5C539.5,477.6,543.2,472.4,546.8,467.3z M469.8,458.5
		c-0.3-5.6,0.3-10.5-1.1-14.6c-0.8-2.3-5.1-4.3-8-4.6c-3.8-0.4-2.3,3.4-2.7,5.6c-0.3,1.9-1,3.9-0.9,5.8c0.1,1.8,0.6,4.5,1.7,5.1
		C461.6,457,465,457.3,469.8,458.5z M516.2,469.3c-5.6,0-10.8,0-17.4,0c2,4.2,3,8.2,5.4,11.2c3.1,3.8,9.7,3.3,10.5-0.2
		C515.5,476.8,515.7,473.2,516.2,469.3z M479.8,457c3.6-1.7,7.4-3.2,7.1-7.7c-0.4-4.9-4.8-6.3-8.7-7.1c-1.3-0.2-4.1,2.2-4.6,4
		C471.8,451.8,476.6,454,479.8,457z M382.4,137c-3.8,1.1-8.5,1.1-9.9,3.2c-1.3,1.8,0.4,6.6,2.1,9.2c0.8,1.2,5.3,1.5,7,0.3
		C386.1,146.8,383.6,142.3,382.4,137z M490.1,448c1.1,2.6,1.4,5.1,2.7,5.8c3.4,1.8,7.1,2.9,10.8,3.8c0.5,0.1,2.1-2,2.3-3.3
		c0.6-3.1-2.3-6.2-5.5-6.3C497.4,447.9,494.5,448,490.1,448z M363.9,203.7c-3-2-6.5-2.2-7.8,1.1c-1.1,2.8-0.7,6.7,0.4,9.6
		c0.4,1.1,4.7,0.7,7.3,1.1C363.9,210.6,363.9,207.1,363.9,203.7z M440.6,452.1c4.8,2.2,8.2,1.1,10.3-2.4c1.8-3.2-1-8.8-5.8-12.1
		C443.5,442.6,442.1,447.2,440.6,452.1z M596,191.7c4.1,0.7,7.3-0.1,7.9-4c0.5-3.5,1-7.7-4.3-8.9c-2.5-0.6-3.6,0.2-3.6,2.7
		C596,184.8,596,188,596,191.7z M362.5,178.1c-4.5,1.6-7.4,5.7-6.3,9.3c1.1,3.4,3.4,5.6,7.5,4.1
		C363.9,186.9,367.2,182.2,362.5,178.1z"/>
	<path d="M539.8,426.5c1.1,1.7,2.7,4.3,4.9,7.8c-3.9,1.3-7.2,3.3-10.7,3.4c-11.8,0.2-23.6,0-35.4-0.5c-6.5-0.3-13-1.8-19.5-2.2
		c-9.4-0.6-18.9-0.7-28.3-1.1c-5.4-0.2-9.7-7.9-7.8-16.1c-3,2.1-4.9,3.5-7.2,5.2c-10.7-9.2-24.4-11.6-37.8-15.1
		c-2.5-0.7-5-1.5-7.5-2.2c-6.1-1.8-5.3-7.5-5.3-11.5c0.2-10.3,0.9-20.7,2.7-30.9c2.1-11.8-0.3-22.6-4.4-33.5
		c-2.4-6.5-4.5-13.3-5.4-20.2c-1.5-11.6,3.4-21.9,9-31.6c5.8-10.2,12.8-19.6,21.1-28.1c10.7-11.1,23.9-16.5,38.4-18.9
		c11.6-1.9,23.4-2.7,35.1-4.2c5.7-0.7,11.2-2.5,16.9-2.6c3.8,0,7.9,1.7,11.5,3.4c21.3,9.6,40.7,21.9,55.7,40.3
		c7.7,9.5,12,20.3,14.5,32.5c2.4,11.8-2.5,21.2-6.6,31c-5.5,13-4.7,25.9-0.8,38.9c1.4,4.6,4.1,8.9,5.3,13.5c0.5,2-0.3,5.3-1.7,6.9
		c-5.8,6.6-12,12.8-18.1,19.1c-3.1,3.2-6.5,6.1-9.8,9.1C545.8,421.4,543.1,423.7,539.8,426.5z M477.4,355.6c-4.2,1-8.9,1.1-9.4,7.2
		c-0.6,7.3-1.2,14.7-2.1,22c-0.5,4.7,0.4,8.6,4.2,11.7c5,4.1,10,8.3,14.5,12c7.5-5.2,14.7-10.1,22.3-15.4c0,0.5,0.2-0.1,0-0.5
		c-5.8-11.2-11.3-22.6-17.5-33.6c-3.6-6.2-5.4-6.2-12.1-3.2L477.4,355.6z M392.6,344.6c2.7-4.6,4.4-8.1,6.7-11.2
		c4.5-6,9.1-12.3,17.2-13.3c7.8-1,15.4-0.1,22.3,5c13.9,10.1,24.2,21.9,23.4,40.6c-0.4,10.7-12.7,26.8-22.4,28.5
		c-18.9,3.4-38.3-2.8-48.7-23.3c-0.7,4.2-1.4,7.9-1.9,11.6c-0.3,2.5-0.2,5-0.2,7.5c0,11.3,0.2,11.3,11.1,14.2
		c11.6,3.1,23.7,5,33.9,12.3c0.8,0.6,2.8-0.7,4.3-0.7c2.2-0.1,4.8-0.6,6.6,0.4c1.2,0.6,2,3.4,1.9,5.1c-0.4,5.1,2.5,8.6,7.6,8.8
		c9,0.3,17.9,0.3,26.8,1.1c10.3,0.9,20.6,2.6,31,3.6c8.7,0.9,17.4,0.1,25.9-2.6c-1-1.9-2.5-3.4-2.4-4.8c0.1-2,0.8-4.5,2.1-5.8
		c2.9-2.8,6.6-4.6,9.5-7.3c7.1-6.5,14.2-13,20.9-20c2.5-2.6,5.6-6.7,5.1-9.4c-1.5-7.4-4.8-14.3-7.6-22.1
		c-3.9,12.9-10.3,23.7-23.8,26.7c-12.7,2.8-24.5-1.2-35-9.2c1,3.6,2.4,6.9,3.5,10.3c1.1,3.4,0.9,6.2-2.9,8.4
		c-6.3,3.8-12.4,8-18.4,12.3c-3.1,2.2-5.6,2.2-8.5-0.3c-3.6-3.2-7.5-6-11-9.2c-3.8-3.4-8.2-6.8-7.8-12.7c0.5-7.8,2-15.7,1.8-23.5
		c-0.2-9.1,4.9-12,12.4-14.6c6.5-2.3,11.4-2.1,15.6,4.1c-3.3-14.3,5.4-30.6,16.6-35.8c6.6-3,13.5-5.3,20.5-7.3
		c13.3-3.8,22.9,2.1,30.2,12.6c3,4.3,5.1,9.2,7.5,13.6c1.7-4.3,3.8-8.7,5.3-13.2c2-5.9,5.1-12,4.9-18c-0.4-15.4-6.8-28.8-17.1-40.2
		c-14.3-15.8-32.1-26.6-51.2-35.5c-5.2-2.4-10.4-3.9-16.1-1.6c-0.6,0.2-1.3,0.1-2,0.2c-14.3,1.7-28.6,2.8-42.8,5.1
		c-14.3,2.3-27.7,7.2-37.3,18.9c-5.4,6.5-11,12.8-15.6,19.8c-7.3,11-14.3,22.9-12.3,36.4C384,321.5,388.8,332.3,392.6,344.6z
		 M563.1,350.7c0.8-7.9-3.3-19-8.6-25.5c-4.9-5.9-11-11.5-19.2-10c-8.7,1.6-17.4,4.2-25.4,8c-11.7,5.6-20.1,23.6-10.7,37.2
		c3.5,5.1,7.3,10,10.8,15.1c6.4,9.2,28,14.6,38.6,6.4C559,373.9,562.1,362.9,563.1,350.7z M429.8,391c11.2,0.2,15.2-2.7,20.4-8.8
		c6.9-8,10-17.3,6.8-27.7c-4.2-13.5-13.5-22.8-25.9-28.8c-6.8-3.3-16.9-3.2-23.5,4.1c-6.4,7.2-10.8,15.2-12.8,24.6
		c-1.6,7.3-0.4,14,3.4,20.1C405.5,386,416.7,390.5,429.8,391z"/>
	<path d="M652.9,188.5c-1.8,0.6-3.6,1.3-5.8,2.1c1.8,1.5,3.4,2.8,6.2,5.1c-3.8,1-6.6,2.3-9.4,2.2c-9.4-0.3-18.7-1-28.1-2
		c-4.6-0.5-7.7-3.6-8.7-8.1c-1.3-5.9-2.1-11.8-3.2-17.8c-0.1-0.3-0.3-0.5-0.6-1.2c-2.7,1.9-2.1,8.2-8,5.9c0,11.7,0,22.9,0,34.2
		c0.9-3,0.4-7.3,5.6-6.5c4,0.6,5.3,3.4,4.1,10.3c-1,6-5.6,1.3-8.8,2.6c0,2.2,0,4.6,0,7.3c-2.6,0.5-4.9,1.5-7,1.1
		c-1.6-0.3-3.6-2.2-4.1-3.8c-0.9-3.3-1-6.8-1.4-10.3c-0.2-0.2-0.4-0.4-0.6-0.6c-2.3-1.3-6.4-2.3-6.8-4c-1.2-5.6-1.2-11.4-1.1-17.2
		c0-1.2,2.3-3.1,3.8-3.3c4-0.6,3.9-3.2,3.9-6.1c0-2,0.7-4,1.1-6c0.4,0.1,0.9,0.2,1.3,0.3c0-0.2-0.1-0.3-0.1-0.5
		c-1.9-7.3-5.6-12.6-13.8-13.5c-0.6-0.1-1.4-1.8-1.5-2.8c-0.8-7.9-1.4-15.7-2.1-23.6c-0.1-1-0.1-2-0.3-2.9c-1.5-6.4,0.1-8.4,6.8-8.2
		c0.9,8.3,1.8,16.6,2.8,26c0.9-3.7,1.5-6.4,2.3-9.9c3.5,0.8,7.8,0.7,9.8,2.7c1.3,1.4,0.4,6.9-1.3,8.8c-2.4,2.7-6.5,3.7-10.3-1
		c1.4,9.2,9.2,9.2,15.6,13.1c-0.7-7.1-1.5-13.5-1.9-19.8c-0.4-7.1-0.8-14.3-0.2-21.4c0.1-1.4,4.7-2.5,8.7-4.4c0,4.5,0,7.2,0,9.9
		c0,5.8-0.3,11.7,0,17.5c0.4,7.5,1.3,15.1,2,22.6c0.1,0.5,0.3,1.1,0.5,1.6c0.5-0.1,1-0.1,1.4-0.2c-0.3-3.7-0.8-7.4-1-11.1
		c-0.4-10-0.7-19.9-1-29.9c-0.1-2.5,0.1-5,0-7.5c-0.2-4.8,3.1-5,6.6-5.3c3.7-0.3,4.3,1.5,4.5,4.7c0.8,15.7,1.8,31.3,3,46.9
		c0.4,5.2,1.2,10.4,2,15.6c1,6.2,6.2,10.5,12.8,10.8c2.7,0.1,5.3,0,8.2-0.8c-2.3-0.7-4.5-1.4-6.8-2.2c-7.4-2.5-10.5-7.1-11.4-14.8
		c-1.3-11.7-3.5-23.3-4.8-35c-1-8.7-1.1-17.5-1.6-26c15.4-6.8,16.4-4.7,16.8,0.8c1.5-7.2,9.4-9.7,17.4-4.8c3.9,2.4,7.1,6,10,9.6
		c2.7,3.5,1.1,6.1-3.4,6.3c-6.3,0.3-12.5,0.8-18.8,0.8c-1.2,0-2.8-1.7-3.5-3.1c-0.9-1.8-0.9-4-2.2-5.8c0.8,10.3,1.7,20.6,2.4,30.9
		c0.3,4.1,0.5,8.2,0.6,12.4c0.1,7.3,2.2,10.3,9.1,12.8c10.1,3.6,10.1,3.6,9.9,14.5C653,187,652.9,187.7,652.9,188.5z M626.7,112.4
		c-7.7,1.3-8.4,1.4-7.6,8.8c1.8,18,4.4,35.9,6.6,53.9c0.6,4.9,3.5,7.7,7.8,8.6c4.9,1.1,10,1.2,15,1.7c1-7,0.9-6.8-4.6-9
		c-6.4-2.5-13.1-4.9-13.8-13.2c-0.5-6.4-0.6-12.9-1.1-19.3C628.3,133.5,627.5,122.9,626.7,112.4z M608.6,117.2c-0.5-0.3-1-0.6-1.6-1
		c-0.3,0.8-0.8,1.5-0.9,2.3c-0.4,7.1-1.2,14.2-0.9,21.3c0.4,8.9,1.6,17.7,2.7,26.6c0.8,6.7,1.8,13.4,3.1,20c0.9,4.3,4.1,6,7.9,5.6
		c-1.7-3.9-4.3-7.7-4.8-11.7c-1.8-14.1-2.9-28.2-4.1-42.4C609.4,131,609.1,124.1,608.6,117.2z M589.2,177c-2.5,4.3-3.7,9-6.4,10.2
		c-4.1,1.8-4.2,4.3-3.7,7.3c0.5,3.1,1,8,2.7,8.7c6.5,2.5,6.2,7.9,7.1,12.9c0.2,1.2,0.3,2.5,0.4,3.7c0.4,0.1,0.8,0.2,1.2,0.3
		c0.5-1.3,1.4-2.6,1.3-3.8c-0.1-3.6-0.8-7.2-0.9-10.7c-0.1-8.3,0.1-16.6-0.1-24.9C590.9,179.2,589.6,177.8,589.2,177z M654.2,119.9
		c0.3-0.4,0.6-0.7,0.8-1.1c-2.4-2.2-4.4-5.1-7.2-6.4c-3.3-1.5-7.2-1.5-10.8-2.1c0.1,3,0.1,6,0.2,8.9c0,0.2,0.4,0.4,0.7,0.7
		C643.3,119.9,648.8,119.9,654.2,119.9z"/>
	<path d="M399.6,236c0.8-12.2,1.6-24.9,2.4-37.6c0.1-1.3,0-2.7,0-4c0.7-16.4,0.9-32.8,2.1-49.1c1-12.7,3.1-25.3,4.9-38
		c0.9-5.9,4.8-10.2,9.1-14c8.2-7.2,16.5-14.3,27.4-17.2c11.5-3.1,22.8-7.2,34.5-8.7c6.7-0.9,14.1,2.1,20.9,4.2
		c9.1,2.7,18.3,5.7,26.9,9.7c4.7,2.1,8.4,6.5,12.6,9.7c10.4,8,14.3,18.6,14.7,31.5c0.5,16.8,2.5,33.5,3.8,50.2
		c0.5,7.3,0.6,14.7,1.1,22c0.9,13.3,2,26.6,2.9,39.9c0.2,2.6,0,5.3,0,8.9c-5.6-3.8-10.3-7.8-15.6-10.6
		c-12.7-6.9-25.6-13.6-38.8-19.7c-3.2-1.5-7.6-0.4-11.4,0c-8.5,0.8-17,1.6-25.4,3c-13.7,2.2-27.5,4.2-40.8,7.7
		C420.4,226.6,410.5,231.6,399.6,236z M558.1,233.9c-0.7-15.2-1.5-30-2.1-44.7c-0.4-9.4-0.4-18.9-1.1-28.3
		c-1-12.7-3.7-25.3-3.6-37.9c0-19.1-11.2-30.3-26-37.8c-12.2-6.2-26.2-9-39.4-13.1c-1.8-0.6-4-1.2-5.8-0.8
		c-20.8,5.4-42.8,8.2-59,24.9c-3.9,4.1-7.6,8.1-8.3,14.2c-1,8.3-3.2,16.6-3.7,24.9c-1.4,20-2.1,40-3.2,60c-0.1,2.1-0.6,4.3-0.6,6.4
		c-0.1,9,0,18,0,27.2c0.2-0.1,1.1-0.3,2-0.8c20-10,41.5-14,63.5-16.2c8.4-0.8,16.7-2.1,25.1-2.8c4.7-0.4,9.8-1.3,14.1,0
		c6.9,2.1,13.6,5.4,20,8.8C539.3,222.8,548.3,228.3,558.1,233.9z"/>
	<path d="M309.3,195.3c1.6-1.7,3.3-3.4,4.7-4.9c-2.1-0.6-4.4-1.2-6.7-1.9c-0.7,3.9-1,8.2-6.7,8.5c-6.1,0.4-7.7-0.2-8.5-6.5
		c-0.7-5.4-0.5-11,0.5-16.4c1-5.5,6-3.1,9.3-3c2.8,0.1,4.8,2,4.2,5.4c-0.2,1.5,0,3,0,4.6c0.5-0.2,1-0.4,1-0.5
		c0.3-5.8,4.4-7.1,9.2-8.5c6.5-1.9,10.2-5.8,10.1-13.7c-0.1-12.7,1.1-25.4,1.8-38.1c0.2-2.9,0.6-5.9,1-8.8c0.1-0.9,0.8-2.4,1.3-2.4
		c3.6-0.1,7.2-0.3,10.7,0.4c2.9,0.6,5.5,2,5,6.1c-1.2,10.1-1.8,20.3-3.1,30.3c-1.3,10-3.5,19.9-4.8,29.9c-1.1,9.2-5.3,10.5-14,12.9
		c-1.4,0.4-2.9,0.7-4.1,2.3c4.7-0.3,9.6,0,14.2-1.1c7.4-1.9,9.1-8.4,9.8-14.9c1.5-15,2.8-30.1,4-45.2c0.3-4.3,0.2-8.7,0-13
		c-0.1-4.4,2.9-4.1,5.7-4.1c2.7,0,5.3,0,5.3,4c-0.1,12,0.1,24.1-0.1,36.1c-0.1,3.9-2.1,7.8-1.7,11.5c0.7,7.2-1.6,13.8-2.9,20.6
		c-1.6,8.1-5.4,11.1-13.5,11.7c-6.8,0.5-13.5,0.9-20.3,1c-3.4,0-6.8-0.7-10.2-1C310,196.3,309.6,195.8,309.3,195.3z M310.2,184.9
		c6.2,2.9,11.9,0.1,17.7-1.5c3.8-1.1,5.7-3.5,6.2-7.4c2.5-17.8,5.3-35.5,7.9-53.3c1.1-7.9-1.2-10.4-8.6-10.1
		c-0.4,3.4-1.1,6.9-1.3,10.3c-0.8,12.1-2,24.2-1.8,36.2c0.2,9.4-4.4,14.6-12.3,16.9C312.9,177.4,311.3,180.4,310.2,184.9z
		 M341,191.4c0.4,0.6,0.8,1.1,1.2,1.7c2.5-1.7,6.6-3,7.2-5.2c1.9-6.6,2.8-13.5,3.6-20.4c1-8.2,1.7-16.4,2-24.6
		c0.3-8,0-16.1-0.1-24.2c0-1.1-0.3-2.3-0.4-3.4c-0.6,0.7-1.2,1.3-1.9,2c-1.2,15.9-2.2,31.9-3.7,47.8
		C348.1,174.2,349,184.1,341,191.4z M297.4,178.6c-0.4,1.2-0.8,2.4-1,3.6c-0.2,1.5-0.5,3-0.2,4.4c0.2,0.9,1.2,1.9,2.1,2.2
		c0.6,0.2,1.9-0.5,2.4-1.2C302.4,184.9,300.5,180,297.4,178.6z"/>
	<path d="M376.2,354.6c-1.4,15.1-3.1,30.1-4.1,45.2c-0.7,10.1-7.9,12.7-15.6,13.8c-18.5,2.5-37.1,5.3-55.7,6.1
		c-13.9,0.6-28.1-0.6-41.8-3c-12.9-2.3-12.8-5.5-15.1-18c-2.9-16.1-3.5-32.2-2.7-48.3c0.6-11.8,2.4-23.5,3.8-35.2
		c0.5-4.4,1.4-8.7,2-13c0.9-6.3,5-9.5,10.7-11.4c11.6-3.8,23.3-3.2,35.1-1.9c6.6,0.7,13.2,0.6,19.8,1.2c14.4,1.2,28.8,2.2,43.1,4.1
		c11.5,1.5,17.6,9.7,18.3,22.5c0.4,6.3,0.8,12.5,1,18.8c0.2,6.3,0,12.7,0,19C375.4,354.5,375.8,354.5,376.2,354.6z M372.2,354.5
		c-0.7,0-1.4-0.1-2.2-0.1c0-12.1,0.3-24.3-0.1-36.4c-0.4-12.4-4.8-18.2-15.5-19.8c-13.2-2-26.6-3-39.9-4.2
		c-8.4-0.8-16.8-1.6-25.2-1.9c-10.4-0.4-20.9-1.1-31.1,2.7c-3.8,1.4-6.6,3.7-7.3,8c-0.7,4.6-1.6,9.1-2.1,13.7
		c-1.4,12.5-2.8,24.9-3.8,37.4c-1.2,15.5,0.8,30.8,3,46.1c1.2,8.3,3.7,10.8,12,13c14.4,3.8,29.2,2.2,43.8,2.8
		c7.5,0.3,15.2-0.8,22.7-1.9c11.3-1.6,22.4-3.7,33.7-5.6c5-0.8,7.4-4,7.8-8.8C369.4,384.4,370.8,369.5,372.2,354.5z"/>
	<path d="M584,353.3c0-8.5-0.3-17,0.1-25.5c0.3-6.9,0.8-13.8,2.1-20.5c1-5,4.6-8.8,9.5-10.5c6-2,12.1-4.2,18.3-4.7
		c17.8-1.5,35.6-2.3,53.4-3.1c9.2-0.4,18.4-0.5,27.5,0.1c3.9,0.2,7.8,2.3,11.4,4c1.5,0.7,3,2.5,3.6,4.2c4.1,10.5,5.5,21.5,6.1,32.6
		c0.7,12.5,2.1,25.1,1.8,37.6c-0.4,12.7-2.1,25.5-4,38.1c-0.8,5.2-5,8.9-10.2,10.2c-6,1.5-12.1,2.6-18.3,3
		c-9.4,0.7-18.9,1.4-28.3,0.9c-13.3-0.7-26.5-2.2-39.7-3.8c-7.4-0.9-14.7-2.6-22-4.4c-5.2-1.3-7.8-5.4-8.3-10.4
		c-1.6-15.9-2.9-31.8-4.4-47.7C583.1,353.4,583.6,353.4,584,353.3z M673.8,414.6c0.1,0.5,0.1,0.9,0.2,1.4c9.1-1.3,18.3-2.3,27.4-3.9
		c4.6-0.8,8-3.9,8.6-8.6c1.6-14.3,3.4-28.6,3.9-42.9c0.4-10.2-0.6-20.5-1.9-30.7c-1.3-10.1-3.6-20.1-5.6-30.1
		c-0.3-1.2-1.4-2.9-2.5-3.2c-6.3-1.8-12.7-4.6-19.1-4.5c-20.7,0.3-41.4,1.6-62,2.9c-6.2,0.4-12.4,1.6-18.5,3
		c-8.1,1.9-14.2,6.2-14.9,15.4c-0.4,5.4-1,10.9-1.1,16.3c-0.1,15.2-0.4,30.3,0.1,45.5c0.2,7.9,1.9,15.7,2.7,23.6
		c0.6,6.3,4.3,9.2,10.2,10.2c9.1,1.6,18.1,3.6,27.3,4.8c8.7,1.1,17.4,1.8,26.2,2C660.9,416,667.3,415,673.8,414.6z"/>
	<path d="M603.9,258.9c15.1,0,30.2,0.4,45.3-0.1c14.6-0.5,29.3-1.7,43.9-2.9c10.3-0.9,15.8,13.5,13.5,19.8c-1.6,4.5-5.7,6.5-9.9,7.1
		c-6.9,0.8-14,0.8-21,1.2c-7.4,0.5-14.7,1.3-22,1.9c-3,0.2-6.1,0-9.2,0.1c-11.1,0.3-22.2,0.6-33.3,1c-6.5,0.2-12.9,1-19.3,0.8
		c-3.8-0.1-7.8-0.9-11.4-2.2c-4.3-1.5-6.7-9.9-5.3-16c1.6-6.6,3.2-8,10.5-8.6c6.1-0.5,12.2-1,18.2-1.4
		C603.9,259.3,603.9,259.1,603.9,258.9z M608.5,262.9c0,0.2,0,0.4,0,0.6c-7.3,0.5-14.5,0.9-21.8,1.5c-6.2,0.5-7.6,2-7.7,8.4
		c-0.1,6.3,2,9.2,7.6,9.5c7.1,0.4,14.3,0.3,21.4,0.1c17.3-0.6,34.6-1.2,51.9-2c11.6-0.5,23.1-1.2,34.7-2c5.7-0.4,8.5-3.2,8.3-7.3
		c-0.3-6.7-5.4-11.9-12.1-11.5c-13.5,0.7-27,2.3-40.6,2.8C636.4,263.3,622.4,262.9,608.5,262.9z"/>
	<path d="M362.8,285.9c-12.1,0-24.2,0.1-36.2,0c-10.2-0.1-20.3-0.4-30.5-1.1c-10.9-0.7-21.9-1.4-32.7-3c-10.5-1.6-12-9.1-8.3-18.4
		c3.1-7.9,8.2-9.8,16.8-8.7c6.5,0.8,13.2,0.9,19.7,1.2c9.7,0.4,19.5,0.7,29.3,1c17.8,0.7,35.7,1.3,53.5,2
		c8.6,0.4,10.7,3.1,10.7,13.8c0,10.2-4,14.2-14.3,14.2c-2.7,0-5.3,0-8,0C362.8,286.6,362.8,286.3,362.8,285.9z M275.7,259.3
		c0-0.1,0-0.3,0-0.4c-2.2,0-4.3,0-6.5,0c-7.6,0.1-11.6,4.3-11.5,12c0.1,3.4,1.2,5.8,4.9,6.3c7.2,0.9,14.3,2.3,21.5,2.7
		c14.7,0.9,29.4,1.5,44.1,2c13.6,0.5,27.2,0.8,40.8,1c10.3,0.2,14.3-4.9,11.6-14.9c-0.5-1.7-2.7-4-4.3-4.2c-8.4-1-16.8-1.6-25.2-1.9
		C326,261,300.8,260.2,275.7,259.3z"/>
	<path d="M673.5,169.7c-4.7,0-9.2,0-13.7,0c0,0.4,0,0.8,0,1.3c2-0.1,4-0.2,6.3-0.3c3.3,7.1,3.8,14.6,1.8,22.3
		c-1.3,5.3-5.7,4.1-9.3,3.9c-3.6-0.1-5-2.3-4.8-6c0.3-6.1,0.1-12.2,0.1-17.5c-4.5-1.7-9.2-3.5-13.9-5.5c-0.9-0.4-1.6-1.5-2.2-2.4
		c-3.4-5.9-3.1-6.7,3.1-9.1c0.7-0.3,1.4-0.6,1.3-0.6c-1.8-1.2-4.5-2.2-5.8-4.2c-1.8-2.6-0.4-6,2.7-9.6c-1.5-2.6-3.7-4.8-4.1-7.4
		c-1.1-7.2,1.8-9.8,11.2-9.6c3.8,0.1,7.7,1.3,11.2,2.9c5.9,2.8,6.1,8.7,0.8,12.7c2.2,2.4,4.9,4.2,2.9,8.4c-2.4,5.1-6.9,4.7-9.5,4.9
		c5,1.7,11.4,3.6,17.7,5.9C673.7,161.5,675.1,165,673.5,169.7z M658,135.3c-1.8-4.5-6.5-6.8-12.3-5.9c-2.3,0.3-4.4,1.4-6.7,2.2
		c1.1,2.2,2.7,4.3,3.3,6.6c0.5,2.1,0.4,4.5-0.1,6.6c-0.4,1.8-1.7,3.4-2.7,5.1c5.1,0,9.3,0.3,13.3-0.1c2.5-0.3,6.3-1.5,3.3-5
		C652.6,140.4,654.2,137.8,658,135.3z M667.3,164.4c-5.4-5.9-19.3-7.4-26.4-2.6c3.2,5.3,7.1,7,12.7,5.6
		C658.2,166.3,662.8,165.4,667.3,164.4z M656.8,188.5c3.1,0.7,5.4,0.6,5.2-2.9c-0.2-2.9-0.9-5.7-1.5-9.2
		C654.3,179.6,658.3,184.7,656.8,188.5z"/>
	<path d="M670.6,180.1c7.2-0.3,11.1,3.3,12.3,12.1c1.8,14.2,2.9,28.4,4.2,42.6c0.8,8.5-2.3,9.4-8.9,10c-17.2,1.5-34.5,2.3-51.8,3.1
		c-3.6,0.2-7.2-0.4-10.7-1.1c-1-0.2-2.2-1.8-2.6-2.9c-4-11.7-3.8-23.6-1.7-35.5c0.3-1.8,4-3.8,6.4-4.2c6.3-1.2,12.7-1.7,19-2.1
		c9.2-0.6,18.5-0.8,27.8-1c6.6-0.2,9.7-4.3,8-11C671.8,186.9,671.3,183.7,670.6,180.1z M678.1,190.7c-0.4,0-0.7,0-1.1,0
		c0,1.3,0.1,2.6,0,4c-0.4,5.4-4.5,10.1-8.9,10.3c-9.6,0.4-19.2,0.5-28.8,1.1c-6.7,0.4-13.5,1-20.2,2.1c-1.6,0.3-3.9,2.8-3.9,4.4
		c-0.3,8.2,0,16.4,0.2,24.6c0.1,5.8,4.4,6.8,8.8,6.7c12.4-0.2,24.9-0.4,37.3-1.1c5.9-0.3,11.7-1.8,17.6-2.5c3.2-0.4,4.2-1.9,3.9-4.9
		c-0.8-10.2-1.2-20.5-2.2-30.7C680.4,200,679,195.4,678.1,190.7z"/>
	<path d="M287.3,181.8c-0.6,2.7-1.2,5.5-1.9,8.3c-1.8,7.2,1.6,11.6,8.8,11.9c13.9,0.5,27.7,1.2,41.6,2c3,0.2,6.3,0.9,8.8,2.5
		c1.7,1,3.1,3.8,3.2,5.8c0.3,10.5,0.7,21-2.6,31.3c-1.3,3.9-3.7,5.2-7.2,5.3c-16.9,0.3-33.7,0.2-50.4-2.9c-3.7-0.7-7.5-0.5-11.2-1
		c-3.8-0.6-5.4-3-5.4-6.9c-0.2-13.9,0.5-27.6,4-41.1c1-4.1,1.6-8.3,3.2-12.1C279.7,181.5,282.5,179.1,287.3,181.8z M281.1,190.4
		c-0.4,0-0.9-0.1-1.3-0.1c-0.4,3-0.9,5.9-1.2,8.9c-1.2,10.1-2.9,20.3-3.4,30.4c-0.6,11.8-0.1,11.8,11.9,12.3c0.7,0,1.3,0,2,0.1
		c15.6,2.7,31.3,3.2,47,3c3.5-0.1,5.5-1.3,5.8-4.6c0.8-8.5,1.5-17.1,2.1-25.7c0.2-3.5-1.8-5.6-5.3-5.8c-15.5-1-31-2.1-46.5-2.9
		c-5.8-0.3-10.1-3.4-11-9.1C280.8,194.8,281.1,192.6,281.1,190.4z"/>
	<path d="M373.3,172.1c3.8,0.7,5.4,2.7,4.8,6.7c-0.8,5.7,4.5,5.8,8.2,8c-0.4,6.3-0.9,12.9-1.3,19.5c-2.6,1.1-5.2,2.1-7.7,3.1
		c-1.3,15.4-2.1,16.2-11.3,13.3c0-16.5,0-32.8,0-49.1c-3.9,0.1-5.9-1.7-5.9-7.3c0-4.8,0.7-9.5,0.9-14.3c0.4-11.3,0.7-22.5,1-33.8
		c0-1,0.1-1.9,0.2-2.9c7.7-0.9,9.1,0,8.7,7.2c-0.7,13.6-1.9,27.3-2.9,40.9c-0.2,3,0,6,0,9.5c2-0.3,3.7-0.5,5.4-0.8L373.3,172.1z
		 M374.3,176.7c-1.8,0.3-3.3,0.5-3.3,0.6c-0.6,12.1-1.2,24.3-1.7,36.4c-0.1,2.1,0.3,4.1,0.5,6.2c0.7,0,1.5,0,2.2-0.1
		c0.3-2.8,0.5-5.7,1-8.5c0.4-2,1-5.2,2.2-5.5c8-2.1,6.3-8.5,6.6-13.9c0.1-1-0.8-2.7-1.7-3.1C375.4,186.5,372.7,183.1,374.3,176.7z"
		/>
	<path d="M634.9,97.5c-2.3,1.1-3.7,2.1-5.3,2.5c-11.5,2.8-23.1,5.2-34.6,8.1c-5,1.3-10,3-14.7,5.1c-3.7,1.7-5.9,0.3-8-2.5
		c-8.4-10.7-16.6-21.5-25.2-32c-3.4-4.2-1.7-8.2-0.2-11.9c1.9-4.8,4.7-9.4,7.7-13.5c1-1.4,4.5-2.2,6.3-1.7
		c15.7,4.9,30.5,11.7,43.7,21.6c8.5,6.4,17,12.8,25.4,19.3C631.5,93.6,632.7,95.2,634.9,97.5z M626.7,96.6c0.2-0.6,0.4-1.1,0.6-1.7
		c-21.2-16.2-42.3-32.4-69.4-39.9c-2.3,4.2-5,8.3-7,12.8c-1.3,2.9-2.3,6,0.4,9.3c8,9.7,15.8,19.5,23.4,29.5c1.9,2.5,3.3,3,6.1,1.9
		c4.3-1.7,8.7-3.3,13.2-4.4C604.8,101.3,615.8,99,626.7,96.6z"/>
	<path d="M386.4,114.4c-2.2-0.6-3.7-0.9-5-1.5c-14.7-6.6-30.8-8-46.1-12.1c-2.2-0.6-4.1-2.3-6.2-3.5c1.1-1.7,1.8-3.9,3.3-5
		c11.9-8.6,23.9-17.1,36-25.5c10.2-7.1,21.6-11.9,33.5-15.4c3.1-0.9,5.3-0.7,6.8,2.6c2.7,5.8,5.5,11.6,8.5,17.3
		c1.8,3.4-0.1,5.5-2,7.9c-8.2,10.4-16.3,20.9-24.5,31.2C389.5,112.1,387.7,113.2,386.4,114.4z M335.2,96
		c17.6,4.5,34.2,8.7,50.4,12.9c7.2-9.1,14.3-18.8,22.2-27.9c6-7,6.8-9.6,2-17.7c-0.7-1.1-1.5-2.2-2.1-3.4c-1.8-3.7-4.4-5.3-8.4-3.4
		c-9.3,4.3-18.8,8.1-27.7,13.2c-10,5.7-19.4,12.5-28.9,19.1C340.1,90.7,337.9,93.4,335.2,96z"/>
	<path d="M524.8,483.5c2.9,1.1,6.3,2.6,9.9,3.7c4.9,1.5,6.1,4.8,5.3,9.4c-1.7,10.2-7.6,18.2-15.2,24.4c-2.6,2.2-8.4,0.8-12.7,0.8
		c-2.6,0-5.2-0.7-7.8-0.9c-15.4-1-30.9-1.9-46.3-3.2c-2.4-0.2-4.9-2.5-6.8-4.4c-1.5-1.5-2.2-3.9-3.4-5.9c-5.1-8.5-1.5-17.3,8.4-18.2
		c9.3-0.9,18.9,0.3,28.3,0.5c9.2,0.1,18.4,0.8,27.5-0.1C516.2,489.2,520.1,485.8,524.8,483.5z M518,518.4c1.7-0.5,4.6-0.5,5.8-1.9
		c4.9-5.7,10.7-11.1,11.3-19.3c0.1-1.7,0.1-4.8-0.8-5.1c-3.6-1.4-8.6-4-11.1-2.7c-9.4,5.3-18.9,6-29.2,4.9
		c-9.8-1.1-19.7-1.8-29.6-2.2c-3.4-0.1-6.9,1-10.1,2c-4.9,1.6-6.3,6.1-3.4,10.5c2.4,3.6,3,8.8,8.7,9.3
		C478.9,515.4,498.2,516.9,518,518.4z"/>
	<path d="M367.2,256.9c-3.7,0-7.3,0.2-11,0c-4.4-0.2-6.5-2.8-6.2-7.1c0.3-5.3,0.7-10.6,1-15.9c0.3-5.6,2.6-7.9,8.1-8
		c9.5,0,19,0.1,28.5-0.1c3.2,0,4.6,1.1,4.4,4.3c-0.4,6.6-0.7,13.1-1,19.7c-0.2,3.8-2.3,5.8-6.1,6c-5.9,0.4-11.8,0.9-17.7,1.4
		C367.2,257.2,367.2,257.1,367.2,256.9z M382.5,249.9c0.6-3.9,1.4-7.2,1.3-10.4c0-1.2-2-3.3-3.3-3.5c-7.3-0.9-14.6-1.3-22.8-2
		c-0.3,2.9-0.5,5.8-0.7,8.3c7.8,0,14.8,0,22.2,0c-0.3,2.5-0.6,4.8-0.9,7.3C379.6,249.8,381,249.9,382.5,249.9z M353.5,252.3
		c7.5,0,14.3,0,21,0c-0.2-1.8-0.4-3.9-0.7-6.6c-6.1,0.4-12.2,0.8-18.4,1.2C354.9,248.3,354.4,249.7,353.5,252.3z M364.1,230.1
		c8,1.4,16.4-0.7,24,4.7c-0.1-1.9-0.2-3.3-0.3-4.7C379.6,230.1,371.8,230.1,364.1,230.1z"/>
	<path d="M569.5,255.7c-0.6-8.7-1.1-16-1.5-23.4c-0.2-4.3,1.4-6.7,6.4-6.5c7.7,0.3,15.4,0.2,23.1,0.1c11.4-0.3,10.3,1.1,12.3,11.4
		c1,4.8,0.6,10-0.1,14.9c-0.2,1.7-3,4.4-4.6,4.4C593.5,256.7,581.9,256.1,569.5,255.7z M582.1,242.4c7.5,0,14.6,0,21.7,0
		c-0.6-2.7-0.3-6.3-1.8-7.4c-1.8-1.2-5.1-0.2-7.8-0.1c-0.5,0-1,0-1.5,0c-4.4,0.3-8.8,0.5-13.2,1.1c-1,0.1-2.5,1.5-2.5,2.4
		c-0.3,3.7-0.1,7.5-0.1,11.6c2.2-0.2,3.5-0.3,5.2-0.5C582.1,246.9,582.1,244.7,582.1,242.4z M585.7,252.9c5.6,0,10.5-0.1,15.5,0
		c4.4,0.1,5.6-1.9,4.3-6c-6.4-0.4-12.8-0.9-19.4-1.3C586,248.4,585.9,250.4,585.7,252.9z M570.8,234.4c5.2-1.4,9-2.8,12.8-3.3
		c4.1-0.5,8.2-0.1,12.3-0.1c-5.3-1.1-10.6-1.1-15.8-1.1c-1.8,0-3.9-0.4-5.4,0.3C573.4,230.7,572.5,232.5,570.8,234.4z"/>
	<path d="M287.3,166.4c-0.9-6.3,4.7-10.8,17-12.8c-1.9-1.8-5-3.6-6.2-6.3c-1-2.3,0.1-5.6,0.3-9.6c-3.5-2.9-2-11.4,4.7-13
		c5.1-1.2,10.8-0.5,16.1,0.1c1.7,0.2,4.8,3.2,4.5,3.9c-1.4,3.7,1,9.7-4.5,10.2c1.2,3.1,3.3,6.3,3.4,9.6c0.1,1.8-3.3,3.7-4.3,4.8
		c1.7,1.4,5.7,3.2,6.4,5.7c1.1,4.5-2.7,8-6.7,9.1c-4.8,1.3-10,1.5-14.9,1.2C298,169.1,293.1,167.6,287.3,166.4z M316.9,147.9
		c0.6,0,1.2-0.1,1.8-0.1c-0.8-1.4-1.3-3.1-2.5-4c-4.5-3.3-4.4-6,0.4-8.8c1.2-0.7,2.2-2.8,2.1-4.1c0-1-1.9-2.6-3.1-2.7
		c-3.1-0.4-6.3-0.4-9.4-0.1c-4.5,0.4-5.7,3.6-3.6,7.5c0.9,1.7,1.5,4.8,0.6,5.9c-4.1,4.8-0.6,5.8,2.9,7.6c1.7,0.9,3.7,3.5,3.5,5
		c-0.2,1.5-2.9,3-4.8,3.8c-3.8,1.5-7.7,2.6-11.6,3.8c15.8,6.5,24.4,5.5,27.1-2.1c-2.4-2.5-8.7-0.7-7.9-6.3
		C312.5,151.3,315.3,149.6,316.9,147.9z"/>
	<path d="M526.7,71.1c-10.9-3.2-21.9-5.9-32.6-9.7c-6.7-2.4-7.4-6.6-4.9-16c0.3-1.1,0.7-2.2,1.1-3.2c1.5-3.7,3-6.6,8.4-5.4
		c10.2,2.3,20.6,3.3,30.8,5.5c6.9,1.5,9.9,7.6,8,14.5c-0.8,2.9-1.6,5.9-2.7,8.7c-1.4,3.4-3.8,5.4-7.9,4.2
		C526.9,70.2,526.8,70.7,526.7,71.1z M501.6,40.4c-2.7,0.6-4.9,0.4-6.1,1.4c-5.3,4.5-3.3,15.1,3.3,17.1c8.1,2.4,16.3,4.3,24.4,6.4
		c6.3,1.6,8.4,0.2,9.8-6c0.3-1.3,0.3-2.6,0.7-3.9c1.3-4.3-0.3-7.5-4.4-8.6C519.8,44.4,510.3,42.4,501.6,40.4z"/>
	<path d="M459.8,36.1c3.2,1.7,7.1-1.1,9.2,3.6c2.8,6.2,4.6,12.6,1.5,18.9c-1,2.1-4.4,3.4-7,4.1c-10.5,2.9-21.1,5.5-31.7,7.8
		c-1.5,0.3-4.3-1.2-5.2-2.7c-3.5-5.8-4.7-12.5-3.1-19c0.6-2.5,4.1-5.5,6.8-6.2C440,39.9,449.9,38.1,459.8,36.1z M456.2,41
		c-5.2,1.2-13.4,3.1-21.6,4.8c-7.7,1.6-8.2,3-7.4,12.1c0.1,1.4,1.2,2.8,1.4,4.2c0.5,3.7,2.8,4.7,6,3.8c9.4-2.4,18.8-5,28.1-7.6
		c4.8-1.3,5.9-4.8,5-9.3C466.2,41.4,465.6,41,456.2,41z"/>
	<path d="M373.4,172.3c-3.3-1.3-4.2-3.8-3.4-6.9c0.8-3.2,0.8-7,5.6-7.4c7.4-0.7,10.3-5.8,11.2-12.2c1-6.8,1.3-13.7,2.2-20.6
		c0.2-1.5,1.8-2.8,2.8-4.2c1.4,1.4,3.9,2.7,3.9,4.1c0.1,6.3-0.3,12.5-0.9,18.8c-0.5,4.9-1.4,9.7-2.1,14.5c-2.6,0.9-5.5,1.3-7.7,2.8
		c-2,1.3-4.7,3.7-4.6,5.5c0.2,5.8-3.5,5.4-7.1,5.5C373.3,172.1,373.4,172.3,373.4,172.3z"/>
	<path d="M312.9,122c-3,0-6,0.1-9,0c-4.3-0.1-6.1-3-4.4-7c2.9-7,18.6-14.6,24.3-10.3c2.7,2,1.8,9,2.1,13.7c0.2,2.7-1.6,4-4.5,3.8
		C318.6,121.8,315.8,122,312.9,122z M303.3,117.5c6.4,0,12.4,0,18.4,0c0-3.4,0-6.3,0-9.2C313.8,107.5,306.2,111.3,303.3,117.5z"/>
	<path d="M531.2,447.7c-1.3,4.4-2.5,8.5-3.7,12.3c-3.1,0-5.7,0.1-8.3,0c-8.3-0.4-9.4-3-9.2-11.9c0.1-5.2,2.8-7.6,6.2-6.4
		c1.8,0.7,3.6,1.5,5.4,2.2c1.5,0.6,3,1.1,4.5,1.7C527.7,446.2,529.2,446.8,531.2,447.7z M513.8,445.5c0.7,3.7,0.4,7.1,1.9,8.9
		c1.4,1.5,5,1.8,7.4,1.2c1.5-0.3,2.3-3.2,3.6-5.2c-3-1.3-5.1-2.2-7.2-3C518.2,446.9,516.9,446.6,513.8,445.5z"/>
	<path d="M459.8,463.2c0,6.5,0,11.8,0,17.4c-4.1,0.5-8.1,1-12.3,1.5c-1.3-4-2.2-7.8-3.6-11.4c-1.3-3.2-0.1-4.5,2.8-5.1
		C450.8,464.9,455,464.1,459.8,463.2z M447.9,469.6c0.9,2.7,1.7,5.1,2.6,7.7c2-0.3,3.7-0.5,5.2-0.7c0-3.1,0-5.8,0-8.9
		C453,468.4,450.7,468.9,447.9,469.6z"/>
	<path d="M487.7,486.2c-3-0.3-5.4-0.5-7.8-0.8c-4.8-0.7-6.9-3.7-6.9-8.4c-0.1-4.4,2.9-9,6.9-10.4c3.4-1.2,9.2,2.5,9.1,6.2
		C488.8,477,488.2,481.2,487.7,486.2z M483.6,481.9c0.5-2.5,1.2-4.8,1.2-7c0-1.2-0.8-3.2-1.7-3.4c-1.3-0.4-3.3,0.1-4.2,1
		C475,476.2,476.9,480.2,483.6,481.9z"/>
	<path d="M533.2,461.6c1.2-9,1.1-18,14.3-17c-0.3,5-0.1,10.6-1,16c-0.6,3.9-3.3,5.8-7.5,3.4C537.1,463,535,462.3,533.2,461.6z
		 M545,454.1c-1.4-1.8-2.5-4.2-3.4-4.1c-4.5,0.3-2,4.8-3.5,7.1c-0.2,0.3,1.7,2,2.7,3C542.2,458.3,543.4,456.4,545,454.1z"/>
	<path d="M546.8,467.3c-3.7,5.2-7.3,10.4-11,15.6c-3.4-0.5-4.9-1.9-4.9-5.5c-0.1-12-0.2-12,11.2-11.4c1.1,0.1,2.3,0,3.4,0
		C545.9,466.4,546.4,466.8,546.8,467.3z"/>
	<path d="M469.8,458.5c-4.8-1.1-8.2-1.5-11-2.8c-1.1-0.5-1.6-3.3-1.7-5.1c-0.1-1.9,0.6-3.8,0.9-5.8c0.4-2.2-1.1-6,2.7-5.6
		c2.9,0.3,7.2,2.3,8,4.6C470.1,448,469.5,452.9,469.8,458.5z M465.6,453.1c0.4-4.2,1.1-7.6-3.2-9.3c-0.5,2.7-0.9,5.1-1.3,7.8
		C462.4,452,463.7,452.4,465.6,453.1z"/>
	<path d="M516.2,469.3c-0.5,3.9-0.7,7.5-1.5,11c-0.8,3.5-7.4,4-10.5,0.2c-2.4-2.9-3.5-7-5.4-11.2
		C505.4,469.3,510.6,469.3,516.2,469.3z M511,473.2c-2.2,0-3.9,0-5.7,0c-0.3,0.4-0.6,0.8-0.8,1.2c1.9,1.6,3.7,3.2,6.5,5.6
		C511,476.7,511,475.1,511,473.2z"/>
	<path d="M479.8,457c-3.1-3.1-8-5.3-6.3-10.8c0.5-1.7,3.3-4.2,4.6-4c3.9,0.7,8.4,2.1,8.7,7.1C487.2,453.8,483.4,455.4,479.8,457z"/>
	<path d="M382.4,137c1.2,5.3,3.7,9.8-0.8,12.8c-1.6,1.1-6.2,0.9-7-0.3c-1.7-2.6-3.4-7.4-2.1-9.2C374,138,378.6,138.1,382.4,137z"/>
	<path d="M490.1,448c4.4,0,7.3,0,10.3,0c3.2,0,6.1,3.2,5.5,6.3c-0.2,1.3-1.8,3.4-2.3,3.3c-3.7-1-7.4-2.1-10.8-3.8
		C491.5,453.1,491.2,450.6,490.1,448z"/>
	<path d="M363.9,203.7c0,3.5,0,6.9,0,11.7c-2.6-0.3-6.9,0.1-7.3-1.1c-1.1-2.9-1.5-6.8-0.4-9.6C357.4,201.5,360.9,201.7,363.9,203.7z
		"/>
	<path d="M440.6,452.1c1.5-4.9,3-9.6,4.5-14.5c4.8,3.3,7.6,8.9,5.8,12.1C448.8,453.2,445.3,454.3,440.6,452.1z"/>
	<path d="M596,191.7c0-3.6,0-6.9,0-10.2c0-2.6,1.1-3.3,3.6-2.7c5.3,1.2,4.8,5.4,4.3,8.9C603.3,191.6,600.1,192.4,596,191.7z"/>
	<path d="M362.5,178.1c4.7,4.1,1.3,8.8,1.3,13.4c-4.2,1.5-6.4-0.7-7.5-4.1C355.1,183.9,358.1,179.8,362.5,178.1z"/>
	<path class="st0" d="M563.1,350.7c-1,12.2-4.1,23.2-14.5,31.2c-10.6,8.2-32.2,2.8-38.6-6.4c-3.5-5.1-7.3-10-10.8-15.1
		c-9.3-13.6-1-31.6,10.7-37.2c7.9-3.8,16.7-6.4,25.4-8c8.2-1.5,14.3,4.2,19.2,10C559.9,331.8,563.9,342.8,563.1,350.7z"/>
	<path class="st0" d="M429.8,391c-13.1-0.6-24.3-5-31.6-16.5c-3.9-6.1-5-12.8-3.4-20.1c2.1-9.5,6.4-17.4,12.8-24.6
		c6.5-7.4,16.7-7.5,23.5-4.1c12.4,6.1,21.7,15.3,25.9,28.8c3.2,10.4,0.1,19.7-6.8,27.7C444.9,388.3,441,391.2,429.8,391z"/>
	<path class="st0" d="M477.2,355.8c6.7-3,8.6-3,12.1,3.2c6.3,11,11.7,22.4,17.5,33.6c0.2,0.4,0,1,0,0.5
		c-7.6,5.3-14.8,10.2-22.3,15.4c-4.5-3.7-9.5-7.9-14.5-12c-3.8-3.1-4.7-7-4.2-11.7c0.9-7.3,1.5-14.7,2.1-22c0.5-6,5.2-6.1,9.4-7.2
		c-2.2,3.1-3.5,6.3-2.4,10.3c1.3,4.7,1.8,9.6,3.1,14.2c1.5,5.3,3.5,10.4,5.3,15.6c0.4-0.2,0.8-0.3,1.2-0.5c0-13.1,0-26.1,0-39.1
		C481.2,356,479.2,355.9,477.2,355.8z"/>
	<path class="st0" d="M382.5,249.9c-1.4-0.1-2.8-0.1-4.2-0.2c0.3-2.5,0.6-4.8,0.9-7.3c-7.4,0-14.3,0-22.2,0c0.2-2.5,0.5-5.4,0.7-8.3
		c8.2,0.7,15.5,1.1,22.8,2c1.3,0.2,3.3,2.2,3.3,3.5C383.9,242.8,383,246,382.5,249.9z"/>
	<path class="st0" d="M582.1,242.4c0,2.2,0,4.5,0,7.1c-1.7,0.2-3.1,0.3-5.2,0.5c0-4.1-0.2-7.9,0.1-11.6c0.1-0.9,1.6-2.2,2.5-2.4
		c4.4-0.6,8.8-0.8,13.2-1.1c0.5,0,1,0,1.5,0c2.7-0.1,6-1.1,7.8,0.1c1.5,1.1,1.3,4.7,1.8,7.4C596.7,242.4,589.6,242.4,582.1,242.4z"
		/>
	<path d="M477.2,355.8c2,0.1,4,0.2,7.4,0.3c0,13,0,26.1,0,39.1c-0.4,0.2-0.8,0.3-1.2,0.5c-1.8-5.2-3.8-10.3-5.3-15.6
		c-1.3-4.7-1.8-9.6-3.1-14.2c-1.2-4,0.2-7.2,2.4-10.3C477.4,355.6,477.2,355.8,477.2,355.8z"/>
	<path d="M290.8,407c-6,0-12,0-18,0c-7.8,0-13.4-3.3-15.5-10.7c-2.4-8.5-4.1-17.3-5.1-26.2c-1-9-1.6-18.3-0.9-27.3
		c0.7-8.6-0.6-17.6,4.4-25.6c5.2-8.5,12.1-13.7,22.3-14.2c11.7-0.6,23.5-1.9,35.2-1.8c10,0.1,20.1,1.6,30,3.1
		c4.1,0.6,7.2,3.2,8.9,7.7c4.1,11.4,6.5,22.9,5.9,35c-0.6,13.7-1.4,27.5-1.9,41.2c-0.3,7.5-3,8.9-11.4,11.6
		C327.2,405.5,309.2,408.3,290.8,407z M260.4,319.4c-1.1,1.8-2.9,3.4-3.2,5.3c-1,5.6-1.9,11.3-2,17c-0.1,8.9,0,17.9,1,26.8
		c1,8.7,2.8,17.3,5,25.8c1.6,6.2,5.7,8.7,12,8.7c10.3,0,20.6,0,31,0c13.8,0,27-3.4,40.6-7.6c-4.1-0.4-7.5-0.4-10.9-1.2
		c-10.8-2.3-18.2-9.9-25.5-17.4c-1.7-1.8-2.4-0.9-3-0.4c-3.2,2.2-6.2,4.8-9.4,7.1c-7.1,5.1-13.4,11.5-22.7,12.9
		c-4.4,0.7-7.9-1.2-9.3-5.5c-2.5-7.7,1.5-13.7,5.2-19.5c4.2-6.5,9.1-12.6,13.2-18.1c-2.8-1.9-5.6-3.3-7.8-5.4
		c-3.1-2.9-6.3-6-8.5-9.6c-3.5-5.8-9.2-11.1-5.8-19.1c0.5-0.5,1-0.9,1.4-1.4c9.3-9.3,9.5-9.6,20.4-2.8c7.3,4.6,15.8,8.4,17.2,18.6
		c4.5-4,8.4-8.1,12.9-11.3c6.4-4.4,12.9-9.1,20-11.9c10-3.9,15.7,0.9,15.8,11.6c0.1,6-2.8,10.7-6,15.2c-3.9,5.5-7.9,10.8-11.5,15.7
		c4.3,4.6,8.2,9,12.3,13.3c4.8,5,11.6,8.9,10,17.8c1.1-11.8,0.9-23.3,1.1-34.9c0.3-12.3-1.6-24.1-5.9-35.6c-1.3-3.5-3.7-5.2-6.7-5.5
		c-11.9-1.3-23.9-2.4-35.8-3c-5.6-0.3-11.2,0.4-16.8,0.9c-5.5,0.5-11.2,0.7-16.5,2.2C266.8,309.8,261.7,312.8,260.4,319.4z
		 M314.6,376.9c-0.6-0.3-1.2-0.6-1.8-1c1.7,1.6,3.4,3.2,5.2,4.7c6.5,5.2,13.1,10.4,22,10.2c2.2-0.1,5.7-1.7,6.3-3.4
		c1.2-3.3,2.4-8.3,0.7-10.7c-4.3-6.2-10.1-11.4-15.4-16.9c-0.5-0.5-1.4-0.7-2.2-1c-4.7-1.6-5.5-3.9-2.5-8.1
		c4.5-6.3,9.6-12.2,13.6-18.9c2.2-3.6,3-8.3,3.4-12.6c0.3-3.1-1.9-6.1-5.7-5.2c-4.6,1.1-9.6,2.1-13.3,4.7
		c-7.5,5.1-14.3,11.2-21.3,17c-4,3.4-7,2.9-8.5-2.1c-1.5-5.2-5.1-8.3-9.3-11.1c-3.1-2-6-4.2-9.3-5.7c-1.9-0.9-5.1-1.8-6.5-0.9
		c-3,1.9-7.4,4.3-6.1,8.7c2.7,9.6,9.3,16.6,16.6,23c0.4,0.4,1.3,0.1,1.9,0.3c4.6,1.1,6.1,4.9,3.3,8.5c-1.7,2.2-3.7,4.2-5.4,6.5
		c-5.2,6.9-10.9,13.4-12.7,22.2c-1.1,5.5,1.4,8.1,6.7,6.6c2.8-0.8,5.6-2,8.1-3.7c6-4,11.8-8.4,17.7-12.6c2.6-1.9,5.6-3.5,7.8-5.7
		c3.5-3.4,6.4-7.6,10.1-10.9c1.3-1.2,4.8-1.4,6.4-0.4c2.5,1.5,1.8,4.2-0.1,6.5C321,368.9,317.8,372.9,314.6,376.9z"/>
	<path d="M664.6,407c-15.8,1.2-33.9-1.8-51.8-7.3c-7.1-2.2-10.4-6.6-10.7-13.6c-0.7-13.1-2.1-26.1-1.8-39.2c0.2-11.5,1.7-23,5.9-34
		c2.7-7.1,8.3-9,14.3-9.7c11.6-1.3,23.3-2,34.9-2.1c10.1,0,20.2,0.6,30.2,2.1c7.8,1.1,13.4,6.6,16.9,13.5c2,4,3,8.7,3.5,13.1
		c1,8.9,1.9,17.8,1.9,26.7c0,7.7-0.8,15.6-2.2,23.1c-1.2,6.6-3.7,13-6,19.3c-2.1,5.9-6.9,8.1-13,8C680.3,406.9,674,407,664.6,407z
		 M613.9,309.8c6.3,0.4,13-1.2,18.7,3.1c7.3,5.5,14.5,11.2,21.7,16.8c1.7,1.4,3.4,2.8,5.2,4.2c0.6-1.8,0.9-3,1.4-4.2
		c2.9-7.2,9.6-10.3,15.4-14.5c7.4-5.4,14.1-7.1,20.6,1.6c-2.7-5.6-7.2-9.1-12.7-9.7c-10.8-1.2-21.7-2-32.5-2c-9.9,0-19.7,1-29.6,2
		c-2.7,0.3-5.3,1.9-7.9,2.9c-4.5,0.5-4,4.8-4.9,7.5c-6.3,18.8-5.5,38.2-4,57.6c0.3,3.6,0.9,7.1,1.4,10.7c0.5-3.8-0.3-8.5,1.6-11
		c6.1-7.7,13.4-14.5,20.1-21.6c-3.1-3.8-6.8-7.9-9.9-12.4c-6-8.8-11.8-17.9-4.4-28.9C614.2,311.4,613.9,310.5,613.9,309.8z
		 M646.1,375.4c-2.4-2-4.4-3.6-6.2-5.3c-2.3-2.1-3-5-0.2-6.8c1.5-0.9,4.9-0.5,6.4,0.6c9.6,7.5,18.8,15.7,28.6,23
		c3.4,2.6,8,3.6,12.3,4.9c2.9,0.9,4.6-0.9,4-3.9c-0.8-4-1.2-8.5-3.3-11.8c-4.7-7.3-10.5-14-15.6-21.1c-1.1-1.5-2-4.2-1.3-5.6
		c0.6-1.3,3.4-1.6,5.3-2.3c1.6-0.6,3.8-0.5,4.7-1.6c4.4-5.4,8.4-11,12.5-16.6c3.2-4.3,1.7-7.9-1.7-11.3c-3.6-3.5-7.1-3.3-10.8-0.2
		c-1,0.8-2.3,1.3-3.4,2c-5.3,3.3-10.8,6.5-13.1,12.9c-2.4,6.6-5.4,7.1-10.7,2.2c-4.4-4.1-8.4-8.7-13.3-12
		c-5.4-3.6-11.4-6.7-17.6-8.5c-5.4-1.5-9,2.8-7.3,8.3c1.7,5.7,4.3,11.3,7.4,16.4c2.8,4.6,7,8.2,10.2,12.6c2.4,3.3,1.2,5.8-2.5,7.3
		c-1.6,0.6-3.3,1.5-4.5,2.7c-4.1,4.1-7.9,8.5-11.9,12.8c-2.9,3.1-4,9.4-2.1,12.8c1.8,3.2,7,4.8,11.6,3.3
		C632,387.8,639.1,382.8,646.1,375.4z M607.6,388.8c-0.5,0.3-1,0.7-1.4,1c1.6,1.6,3,4,5,4.7c13.3,4.6,26.9,8.1,41.1,8.5
		c11,0.3,22,0.1,33,0c1.6,0,3.3-0.2,4.9-0.6c6.4-1.4,7.3-7.3,8.8-12c3.8-11.8,5.2-24.1,4.2-36.6c-0.6-8.6-0.7-17.2-1.1-25.8
		c-0.1-1.8-0.5-3.6-0.7-4.6c-3.9,6.2-7.5,12.8-12,18.7c-3.5,4.5-6.2,10.7-14.2,10c2.6,3.2,5.3,5.7,7.1,8.7c4.3,7,9.1,13.9,12.2,21.4
		c3.1,7.6,0.1,13.9-5.6,14.1c-3.8,0.2-8.3-0.9-11.5-2.9c-8.9-5.6-17.4-12-25.8-17.9c-7,8.3-15.1,14.9-25.5,18.5
		C618.3,396.6,612.9,395,607.6,388.8z"/>
	<path class="st0" d="M260.2,319.2c-3.4,7.9,2.4,13.3,5.8,19c2.2,3.6,5.4,6.7,8.5,9.6c2.2,2.1,5.1,3.6,7.8,5.4
		c-4.1,5.5-9,11.6-13.2,18.1c-3.8,5.8-7.7,11.8-5.2,19.5c1.4,4.3,4.9,6.2,9.3,5.5c9.3-1.4,15.6-7.8,22.7-12.9
		c3.2-2.3,6.2-4.9,9.4-7.1c0.7-0.5,1.3-1.3,3,0.4c7.2,7.4,14.7,15.1,25.5,17.4c3.3,0.7,6.8,0.8,10.9,1.2
		c-13.6,4.2-26.8,7.5-40.6,7.6c-10.3,0-20.6,0-31,0c-6.3,0-10.4-2.5-12-8.7c-2.2-8.5-4-17.1-5-25.8c-1-8.9-1.1-17.9-1-26.8
		c0.1-5.7,1-11.4,2-17c0.3-1.9,2.1-3.5,3.2-5.3C260.4,319.4,260.2,319.2,260.2,319.2z"/>
	<path class="st0" d="M260.4,319.4c1.4-6.5,6.4-9.6,12-11.2c5.3-1.5,11-1.7,16.5-2.2c5.6-0.5,11.2-1.2,16.8-0.9
		c12,0.7,23.9,1.7,35.8,3c3,0.3,5.3,2,6.7,5.5c4.3,11.5,6.2,23.4,5.9,35.6c-0.2,11.5-0.1,23.1-1.1,34.9c1.6-8.9-5.3-12.8-10-17.8
		c-4.1-4.3-8-8.6-12.3-13.3c3.6-4.9,7.6-10.2,11.5-15.7c3.2-4.6,6.1-9.2,6-15.2c-0.2-10.7-5.8-15.5-15.8-11.6
		c-7.1,2.8-13.7,7.5-20,11.9c-4.6,3.2-8.5,7.3-12.9,11.3c-1.5-10.3-10-14.1-17.2-18.6c-10.9-6.8-11.1-6.5-20.4,2.8
		c-0.5,0.5-1,0.9-1.4,1.4C260.2,319.2,260.4,319.4,260.4,319.4z"/>
	<path class="st0" d="M607.6,388.8c5.3,6.3,10.6,7.9,18.4,5.2c10.4-3.5,18.6-10.2,25.5-18.5c8.4,5.9,16.9,12.3,25.8,17.9
		c3.2,2,7.7,3.1,11.5,2.9c5.7-0.2,8.7-6.6,5.6-14.1c-3.1-7.5-7.9-14.4-12.2-21.4c-1.9-3-4.5-5.6-7.1-8.7c7.9,0.7,10.7-5.5,14.2-10
		c4.5-5.8,8.1-12.4,12-18.7c0.2,1.1,0.6,2.9,0.7,4.6c0.4,8.6,0.5,17.2,1.1,25.8c0.9,12.5-0.5,24.8-4.2,36.6
		c-1.5,4.6-2.4,10.6-8.8,12c-1.6,0.3-3.2,0.5-4.9,0.6c-11,0-22,0.3-33,0c-14.2-0.4-27.8-3.9-41.1-8.5c-2-0.7-3.3-3.1-5-4.7
		C606.7,389.4,607.2,389.1,607.6,388.8z"/>
	<path class="st0" d="M614.1,310c2.6-1,5.2-2.7,7.9-2.9c9.8-1,19.7-2,29.6-2c10.8,0,21.7,0.8,32.5,2c5.5,0.6,10,4.1,12.7,9.7
		c-6.4-8.8-13.2-7-20.6-1.6c-5.8,4.2-12.4,7.3-15.4,14.5c-0.5,1.2-0.8,2.4-1.4,4.2c-1.8-1.4-3.5-2.8-5.2-4.2
		c-7.2-5.6-14.4-11.3-21.7-16.8c-5.6-4.2-12.3-2.6-18.7-3.1L614.1,310z"/>
	<path class="st0" d="M613.9,309.8c0,0.7,0.3,1.5,0,2c-7.3,11-1.6,20.1,4.4,28.9c3.1,4.5,6.8,8.6,9.9,12.4c-6.7,7.1-14,14-20.1,21.6
		c-2,2.5-1.2,7.2-1.6,11c-0.5-3.6-1.1-7.2-1.4-10.7c-1.5-19.4-2.3-38.8,4-57.6c0.9-2.7,0.4-6.9,4.9-7.5
		C614.1,310,613.9,309.8,613.9,309.8z"/>
</g>
</svg>
